<svg width="18" height="19" viewBox="0 0 18 19" fill="none" xmlns="http://www.w3.org/2000/svg">
<path d="M14.6162 9.61035L14.9385 9.66309L15.0674 9.72168L15.2959 9.90918L15.3076 10.1084L15.2842 10.4424L15.3076 10.5596L15.4248 10.3311L15.7529 9.97949L15.9053 9.83887L16.1982 9.61035L16.292 9.59277L16.5439 9.65137L16.6729 9.73926L16.8018 9.92676L16.7959 10.0322L16.8252 10.085L16.8311 10.2256L16.7842 10.2725L16.79 10.3193L16.6611 10.5889L16.667 10.6709L16.5967 10.7471L16.6025 10.7822L16.5791 10.9639L16.5498 11.0049H16.5146L16.5264 11.0693L16.4912 11.0986L16.4619 11.2568L16.4736 11.292L16.4443 11.4912L16.4619 11.585L16.4268 11.6611L16.4561 11.7197L16.5439 11.7432L16.8252 11.5205L16.8779 11.5146L16.8896 11.4561L17.0596 11.333L17.1943 11.1748L17.2236 11.1924L17.2061 11.3096L17.042 11.5908L16.9072 11.7139L16.9014 11.7725L16.6846 11.9131H16.6436L16.6084 11.9834L16.4619 12.0361L16.3623 11.9893L16.3447 11.9541L16.1924 11.9248L16.0283 11.6553L15.958 11.3037L15.9404 11.1865L15.958 11.1279L16.0049 10.8525L16.1807 10.2666L16.2627 10.1318L16.3096 9.91504L16.2686 9.82715L16.2217 9.80371L15.958 9.96777L15.6592 10.3486L15.4365 10.7354L15.2842 11.1162L15.29 11.1514L14.9736 11.8955L14.915 11.9951L14.8037 12.335L14.7568 12.2764L14.7217 12.2998L14.6338 12.2588V12.2061L14.5928 12.1943L14.5986 12.2236L14.5225 12.2178L14.4229 12.1064L14.4287 12.0186L14.499 11.6787L14.5752 11.4326L14.5576 11.3096L14.6045 11.2451L14.5928 11.1572L14.7393 10.5127L14.7686 10.1143L14.751 9.81543L14.6162 9.61035Z" fill="black"/>
<path d="M12.6826 9.22363L12.7998 9.27051L12.8525 9.25879L12.9053 9.31152L12.9346 9.2998L13.0693 9.41699L13.2744 9.58105L13.415 9.73926L13.3916 9.79199L13.3037 9.78613L13.1045 9.72168L12.876 9.73926L12.501 9.9502L12.2021 10.29L12.0732 10.5068L11.9092 10.9229L11.8447 11.2627L11.8623 11.5674L11.8916 11.6143L11.8799 11.6787L11.9678 11.8252L12.1084 11.9541L12.3604 12.0186L12.6592 11.9541L12.8936 11.8018L13.1104 11.5967L13.3154 11.2861L13.5322 10.8408L13.5029 10.7764L13.4912 10.5244L13.3154 10.3662L13.1689 10.3252L13.1104 10.3311L12.917 10.3721L12.7354 10.4775V10.5127L12.5713 10.7529L12.5479 10.7764L12.4893 10.9521L12.501 11.1924L12.6123 11.2627L12.8467 11.2334L12.9404 11.1924V11.251L12.8408 11.3389L12.7002 11.3975L12.4951 11.374L12.3193 11.1982L12.2549 11.0459L12.2666 10.7881L12.3486 10.6006L12.4658 10.4131L12.7354 10.208L12.7998 10.1787L13.0166 10.1436L13.1455 10.1377L13.4033 10.208L13.5498 10.2842L13.7139 10.4365L13.7607 10.4893L13.8135 10.7822L13.749 11.0986L13.5908 11.4209L13.333 11.7139L12.9111 12.0303L12.6533 12.1357L12.5479 12.1475L12.208 12.1709L11.9209 12.0596L11.6572 11.8486L11.499 11.5498L11.4287 11.0986L11.458 10.7881L11.54 10.46L11.5928 10.4482L11.5752 10.3779L11.833 9.8916L12.1436 9.53418H12.1846L12.2256 9.45801L12.3486 9.38184L12.6826 9.22363Z" fill="black"/>
<path d="M10.3271 9.44629L10.4854 9.46387L10.8486 9.70996L10.8779 9.76855L11.0244 9.93262L10.9951 10.1729L10.8486 10.3896L10.7432 10.4717L10.3389 10.7764L10.3037 10.7881L10.2568 10.7764L10.2217 10.8174L9.77637 10.9873L9.56543 11.0166L9.55957 11.0518L9.43066 11.0283L9.28418 11.0635L9.2373 11.4912L9.21973 11.5029L9.36621 11.8369L9.6123 11.9834L9.78809 11.9951L9.95215 11.9775L10.2275 11.9014L10.5557 11.708L10.5967 11.6787L10.8838 11.4385L10.7607 11.7021L10.5146 11.9482L10.1572 12.1182L9.8291 12.2002L9.72363 12.165L9.61816 12.1885L9.55957 12.1416L9.50684 12.1475L9.23145 11.9951L8.98535 11.7432L8.90918 11.5967L8.83887 11.3799L8.82715 10.8643L8.61621 10.6123L8.68652 10.5889L8.85059 10.7061L8.90918 10.6006L9.12012 10.1787L9.38379 9.88574L9.62988 9.68652L10.0166 9.48145L10.1865 9.45215L10.3271 9.44629ZM10.5381 9.68652L10.3447 9.73926L10.0752 9.88574L9.87012 10.0732L9.58301 10.3896L9.33691 10.8877L9.34863 10.917L9.37793 10.9404L9.66504 10.8701L10.0752 10.665L10.5029 10.3076L10.6729 10.0498L10.7197 9.90332L10.6963 9.73926L10.5381 9.68652Z" fill="black"/>
<path d="M6.27832 5.64941L6.45996 5.70215L6.47168 5.7373L6.4248 5.98926L6.45996 6.01855L6.62402 6.00684L6.95801 5.91895L7.09277 5.84277L7.14551 5.72559L7.19238 5.77246L7.11035 6.0127L6.92285 6.11816L6.64746 6.15918L6.44238 6.1709L6.38965 6.21191L6.2666 6.65137L6.05566 7.44824L5.98535 7.6123L5.99121 7.73535L5.9502 7.78809L5.9209 7.87598L5.87402 7.91113L5.87988 7.97559L5.83301 7.99902L5.7627 8.30957L5.65723 8.56152L5.56934 8.83691L5.48145 9.05957L5.44043 9.10645L5.31152 9.47559L5.27637 9.50488L5.21777 9.73926L5.10059 9.97949L5.05371 10.1025L4.91895 10.3896L4.76074 10.7646L4.69043 10.9111L4.66113 10.9463L4.53809 11.2393L4.43262 11.3682V11.4326L4.26855 11.7021L4.21582 11.7373L4.18652 11.8604L3.98145 12.2002L3.94629 12.2236L4.18066 12.3525L5.24121 12.7979L5.6748 12.9209L6.29004 12.9971L6.58887 12.9678L6.78223 12.9268L7.10449 12.8096L7.41504 12.6104L7.55566 12.4639L7.69043 12.2764L7.86621 11.9717L7.81348 11.8955L7.86035 11.8545L7.90137 11.5732L7.86035 11.4619L7.81934 11.2334L7.72559 11.1045L7.49707 10.8994L7.40918 10.8643L7.10449 10.7529L6.78223 10.7354L6.43652 10.8936L6.34863 10.9932L6.3252 11.0635L6.46582 11.0752L6.57715 11.1221L6.66504 11.3037L6.64746 11.4092L6.4541 11.5615L6.31934 11.585L6.1377 11.5205L6.04395 11.3564L6.01465 11.1807L6.09668 10.9463L6.23145 10.8057L6.44238 10.6416L6.87598 10.5537L7.13379 10.6123L7.43848 10.6533L7.49707 10.6885L7.91309 10.9932L8.1123 11.333L8.22363 11.626L8.24121 11.9775L8.19434 12.2119L8.21777 12.2881L8.1123 12.5283L8.12402 12.5693L8.07129 12.6631L7.93066 12.9561L7.76074 13.085L7.61426 13.2139L7.30957 13.3545L7.26855 13.3838L7.15137 13.4014L7.10449 13.4658L6.86426 13.4482L6.6416 13.5068L6.58301 13.4951L6.53613 13.5186L6.19043 13.4658L5.8916 13.4307L5.76855 13.3779L5.64551 13.3193L5.24707 13.1904L4.83105 12.9678L4.43262 12.8037L4.31543 12.71L4.27441 12.7217L4.14551 12.6514L4.0752 12.5752H4.00488L3.75293 12.4521L3.50098 12.7393L3.37207 12.8213L3.20801 12.9678L3.02637 13.0732L2.68652 13.1787L2.60449 13.1201L2.97949 12.9795L3.03223 12.9092L3.1084 12.8975L3.31934 12.6689L3.61816 12.3643L3.15527 12.2061L3.13184 12.2119L2.9502 12.4053L2.41113 12.8564L2.23535 12.9443L2.21777 12.9795L2.17676 12.9854L1.94824 13.1025L1.77246 13.1143L1.68457 13.1846H1.26855L1.02832 13.1377L0.899414 13.0322L0.776367 12.751L0.811523 12.5811L0.981445 12.3936L1.26855 12.165L1.66699 11.9951L2.12988 11.8896L2.66309 11.9131L2.88574 11.9541L3.0498 11.6846L3.25488 11.292L3.29004 11.1631L3.39551 10.9463L3.71777 10.0791L3.96973 9.27051L4.04004 9.0127L4.06348 8.84277L4.15723 8.54395L4.22754 8.35645L4.24512 8.09863L4.28613 7.91699L4.31543 7.86426L4.33301 7.6709L4.40332 7.40723L4.54395 6.69824L4.5791 6.46387L4.59668 6.31152L4.19238 6.35254L3.9873 6.34668L3.59473 6.37598L3.31934 6.34668H3.20215L3.05566 6.24707L3.02637 6.19434L2.94434 5.93652L2.93262 5.79004L3.00879 5.80762L3.07324 5.9248L3.17871 6.00684L3.30176 6.04785L3.70605 6.11816L3.77051 6.07715L3.91699 6.11816L4.30957 6.1123L4.38574 6.12988L4.59668 6.10059L4.6084 6.08301L4.56738 6.00098H4.61426L4.5791 5.88379L4.69043 5.87793L4.9541 6.02441L5.00098 6.08887L5.46973 6.11816L5.54004 6.13574L5.83301 6.07715H6.13184L6.17285 6.07129L6.21387 5.84277L6.26074 5.78418L6.24316 5.73145L6.28418 5.68457L6.27832 5.64941ZM5.27637 6.27051L5.22363 6.30566L5.27637 6.34668L5.34082 6.41699L5.3291 6.46973L5.40527 6.56348L5.38184 6.72168L5.44629 6.79199L5.37598 7.19043L5.35254 7.22559L5.33496 7.3252L5.28809 7.35449L5.31738 7.5127L5.23535 7.55371V7.83496L5.16504 7.97559L5.07715 8.1748L5.03613 8.36816L4.97168 8.57324L4.90137 8.71387L4.80762 8.96582L4.74902 9.08887L4.70215 9.25293L4.62012 9.35254L4.63184 9.46387L4.5791 9.51074L4.58496 9.5752L4.56152 9.60449L4.46777 9.90918L4.33887 10.1553L4.35059 10.1963L4.2627 10.4189L4.2041 10.4365L4.0752 10.7178L4.02832 10.8936L3.80566 11.2158L3.69434 11.4268L3.54199 11.6846L3.28418 11.9951L3.77637 12.1826L3.94629 11.8545L4.05762 11.7314L4.13379 11.5029L4.1748 11.4854L4.20996 11.4033L4.2627 11.3506L4.3623 11.0928L4.46777 10.9229L4.48535 10.8408L4.52637 10.8115L4.56152 10.6768L4.78418 10.249L4.8252 10.085L4.88379 9.93848L4.91895 9.8916L4.9248 9.83301L5.00684 9.72168L5.10059 9.43457L5.31152 8.9248L5.41699 8.70801L5.45215 8.56738L5.56934 8.29785L5.62207 8.0459L5.68652 7.97559L5.6748 7.92285L5.73926 7.77051L5.8916 7.26074L6.06738 6.56348L6.12012 6.26465L5.97949 6.24121L5.3584 6.27637L5.3291 6.28809L5.27637 6.27051ZM2.3291 12.0479L2.05957 12.0771L1.54395 12.2354L1.21582 12.4697L1.08105 12.6279L1.01074 12.792L1.16895 12.9795L1.22754 12.9561L1.35645 13.0029L1.66699 12.9736L2.0127 12.8623L2.29395 12.6807L2.5459 12.4404L2.78613 12.0947L2.7627 12.0889L2.3291 12.0479Z" fill="black"/>
</svg>
